<svg xmlns="http://www.w3.org/2000/svg" xmlns:xlink="http://www.w3.org/1999/xlink" width="640" zoomAndPan="magnify" viewBox="0 0 480 479.999983" height="640" preserveAspectRatio="xMidYMid meet" version="1.0"><defs><g/><clipPath id="a079a7fc4e"><rect x="0" width="281" y="0" height="140"/></clipPath><clipPath id="c785f7bcc1"><path d="M 334.488281 173.414062 L 363.863281 173.414062 L 363.863281 282 L 334.488281 282 Z M 334.488281 173.414062 " clip-rule="nonzero"/></clipPath><clipPath id="52ced7ab05"><path d="M 336.738281 173.414062 L 361.613281 173.414062 C 362.855469 173.414062 363.863281 174.421875 363.863281 175.664062 L 363.863281 279.746094 C 363.863281 280.988281 362.855469 281.996094 361.613281 281.996094 L 336.738281 281.996094 C 335.496094 281.996094 334.488281 280.988281 334.488281 279.746094 L 334.488281 175.664062 C 334.488281 174.421875 335.496094 173.414062 336.738281 173.414062 Z M 336.738281 173.414062 " clip-rule="nonzero"/></clipPath><clipPath id="887390f471"><path d="M 0.488281 0.414062 L 29.863281 0.414062 L 29.863281 109 L 0.488281 109 Z M 0.488281 0.414062 " clip-rule="nonzero"/></clipPath><clipPath id="fdd325f5b0"><path d="M 2.738281 0.414062 L 27.613281 0.414062 C 28.855469 0.414062 29.863281 1.421875 29.863281 2.664062 L 29.863281 106.746094 C 29.863281 107.988281 28.855469 108.996094 27.613281 108.996094 L 2.738281 108.996094 C 1.496094 108.996094 0.488281 107.988281 0.488281 106.746094 L 0.488281 2.664062 C 0.488281 1.421875 1.496094 0.414062 2.738281 0.414062 Z M 2.738281 0.414062 " clip-rule="nonzero"/></clipPath><clipPath id="81938d2e01"><rect x="0" width="30" y="0" height="109"/></clipPath><clipPath id="4b7e81685d"><rect x="0" width="64" y="0" height="140"/></clipPath><clipPath id="093bb5bfcb"><path d="M 127.355469 206.625 L 139.445312 206.625 L 139.445312 223.960938 L 127.355469 223.960938 Z M 127.355469 206.625 " clip-rule="nonzero"/></clipPath><clipPath id="ac6a3b9882"><path d="M 139.445312 208.195312 L 139.445312 223.957031 L 133.402344 220.8125 L 127.355469 223.957031 L 127.355469 208.195312 C 127.355469 207.347656 128.082031 206.625 128.925781 206.625 L 137.875 206.625 C 138.722656 206.625 139.445312 207.308594 139.445312 208.234375 Z M 139.445312 208.195312 " clip-rule="nonzero"/></clipPath><clipPath id="c1434be4ec"><path d="M 0.355469 0.625 L 12.445312 0.625 L 12.445312 17.960938 L 0.355469 17.960938 Z M 0.355469 0.625 " clip-rule="nonzero"/></clipPath><clipPath id="30e41afa2b"><path d="M 12.445312 2.195312 L 12.445312 17.957031 L 6.402344 14.8125 L 0.355469 17.957031 L 0.355469 2.195312 C 0.355469 1.347656 1.082031 0.625 1.925781 0.625 L 10.875 0.625 C 11.722656 0.625 12.445312 1.308594 12.445312 2.234375 Z M 12.445312 2.195312 " clip-rule="nonzero"/></clipPath><clipPath id="250b2ef5aa"><rect x="0" width="13" y="0" height="18"/></clipPath></defs><rect x="-48" width="576" fill="#ffffff" y="-47.999998" height="575.99998" fill-opacity="1"/><rect x="-48" width="576" fill="#4f9ac3" y="-47.999998" height="575.99998" fill-opacity="1"/><g transform="matrix(1, 0, 0, 1, 51, 175)"><g clip-path="url(#a079a7fc4e)"><g fill="#ffffff" fill-opacity="1"><g transform="translate(0.726242, 104.233711)"><g><path d="M 41.953125 0 L 27.359375 -26.46875 L 23.265625 -26.46875 L 23.265625 0 L 6.1875 0 L 6.1875 -70.109375 L 34.859375 -70.109375 C 40.378906 -70.109375 45.085938 -69.140625 48.984375 -67.203125 C 52.878906 -65.273438 55.789062 -62.628906 57.71875 -59.265625 C 59.65625 -55.910156 60.625 -52.171875 60.625 -48.046875 C 60.625 -43.378906 59.304688 -39.210938 56.671875 -35.546875 C 54.046875 -31.890625 50.171875 -29.296875 45.046875 -27.765625 L 61.21875 0 Z M 23.265625 -38.546875 L 33.859375 -38.546875 C 36.984375 -38.546875 39.328125 -39.3125 40.890625 -40.84375 C 42.460938 -42.375 43.25 -44.539062 43.25 -47.34375 C 43.25 -50 42.460938 -52.09375 40.890625 -53.625 C 39.328125 -55.164062 36.984375 -55.9375 33.859375 -55.9375 L 23.265625 -55.9375 Z M 23.265625 -38.546875 "/></g></g></g><g fill="#ffffff" fill-opacity="1"><g transform="translate(69.343027, 104.233711)"><g><path d="M 23.265625 -56.421875 L 23.265625 -42.25 L 46.140625 -42.25 L 46.140625 -29.0625 L 23.265625 -29.0625 L 23.265625 -13.6875 L 49.140625 -13.6875 L 49.140625 0 L 6.1875 0 L 6.1875 -70.109375 L 49.140625 -70.109375 L 49.140625 -56.421875 Z M 23.265625 -56.421875 "/></g></g></g><g fill="#ffffff" fill-opacity="1"><g transform="translate(126.873299, 104.233711)"><g><path d="M 49.84375 -12.390625 L 23.671875 -12.390625 L 19.46875 0 L 1.59375 0 L 26.96875 -70.109375 L 46.734375 -70.109375 L 72.109375 0 L 54.03125 0 Z M 45.4375 -25.5625 L 36.75 -51.234375 L 28.171875 -25.5625 Z M 45.4375 -25.5625 "/></g></g></g><g fill="#ffffff" fill-opacity="1"><g transform="translate(203.979753, 104.233711)"><g><path d="M 32.453125 -70.109375 C 39.847656 -70.109375 46.304688 -68.644531 51.828125 -65.71875 C 57.359375 -62.789062 61.640625 -58.675781 64.671875 -53.375 C 67.703125 -48.082031 69.21875 -41.976562 69.21875 -35.0625 C 69.21875 -28.195312 67.703125 -22.097656 64.671875 -16.765625 C 61.640625 -11.441406 57.34375 -7.316406 51.78125 -4.390625 C 46.226562 -1.460938 39.785156 0 32.453125 0 L 6.1875 0 L 6.1875 -70.109375 Z M 31.359375 -14.78125 C 37.816406 -14.78125 42.84375 -16.546875 46.4375 -20.078125 C 50.03125 -23.609375 51.828125 -28.601562 51.828125 -35.0625 C 51.828125 -41.519531 50.03125 -46.546875 46.4375 -50.140625 C 42.84375 -53.734375 37.816406 -55.53125 31.359375 -55.53125 L 23.265625 -55.53125 L 23.265625 -14.78125 Z M 31.359375 -14.78125 "/></g></g></g></g></g><g clip-path="url(#c785f7bcc1)"><g clip-path="url(#52ced7ab05)"><g transform="matrix(1, 0, 0, 1, 334, 173)"><g clip-path="url(#81938d2e01)"><g clip-path="url(#887390f471)"><g clip-path="url(#fdd325f5b0)"><path fill="#ffffff" d="M 0.488281 0.414062 L 29.863281 0.414062 L 29.863281 108.964844 L 0.488281 108.964844 Z M 0.488281 0.414062 " fill-opacity="1" fill-rule="nonzero"/></g></g></g></g></g></g><path stroke-linecap="butt" transform="matrix(0.75, 0, 0, 0.75, 338.530823, 186.277486)" fill="none" stroke-linejoin="miter" d="M 0.00056906 3.999811 L 28.38078 3.999811 " stroke="#6c6c6c" stroke-width="8" stroke-opacity="1" stroke-miterlimit="4"/><g transform="matrix(1, 0, 0, 1, 371, 176)"><g clip-path="url(#4b7e81685d)"><g fill="#ffffff" fill-opacity="1"><g transform="translate(0.684843, 103.983711)"><g><path d="M 56.625 -70.109375 L 56.625 -56.421875 L 38.046875 -56.421875 L 38.046875 0 L 20.96875 0 L 20.96875 -56.421875 L 2.390625 -56.421875 L 2.390625 -70.109375 Z M 56.625 -70.109375 "/></g></g></g></g></g><g clip-path="url(#093bb5bfcb)"><g clip-path="url(#ac6a3b9882)"><g transform="matrix(1, 0, 0, 1, 127, 206)"><g clip-path="url(#250b2ef5aa)"><g clip-path="url(#c1434be4ec)"><g clip-path="url(#30e41afa2b)"><path fill="#b6071c" d="M 0.355469 0.625 L 12.445312 0.625 L 12.445312 17.960938 L 0.355469 17.960938 Z M 0.355469 0.625 " fill-opacity="1" fill-rule="nonzero"/></g></g></g></g></g></g></svg>