<svg xmlns="http://www.w3.org/2000/svg" xmlns:xlink="http://www.w3.org/1999/xlink" width="640" zoomAndPan="magnify" viewBox="0 0 480 299.999988" height="400" preserveAspectRatio="xMidYMid meet" version="1.0"><defs><g/><clipPath id="5ae2e9c928"><path d="M 0.0390625 3 L 323 3 L 323 164 L 0.0390625 164 Z M 0.0390625 3 " clip-rule="nonzero"/></clipPath><clipPath id="767c530098"><rect x="0" width="323" y="0" height="161"/></clipPath><clipPath id="e73e95e968"><path d="M 325.820312 0.316406 L 359.652344 0.316406 L 359.652344 125.464844 L 325.820312 125.464844 Z M 325.820312 0.316406 " clip-rule="nonzero"/></clipPath><clipPath id="e325819157"><path d="M 328.070312 0.316406 L 357.402344 0.316406 C 358.644531 0.316406 359.652344 1.320312 359.652344 2.566406 L 359.652344 123.117188 C 359.652344 124.359375 358.644531 125.367188 357.402344 125.367188 L 328.070312 125.367188 C 326.828125 125.367188 325.820312 124.359375 325.820312 123.117188 L 325.820312 2.566406 C 325.820312 1.320312 326.828125 0.316406 328.070312 0.316406 Z M 328.070312 0.316406 " clip-rule="nonzero"/></clipPath><clipPath id="1fa9f3d6c4"><path d="M 0.820312 0.316406 L 34.652344 0.316406 L 34.652344 125.464844 L 0.820312 125.464844 Z M 0.820312 0.316406 " clip-rule="nonzero"/></clipPath><clipPath id="e897fefeab"><path d="M 3.070312 0.316406 L 32.402344 0.316406 C 33.644531 0.316406 34.652344 1.320312 34.652344 2.566406 L 34.652344 123.117188 C 34.652344 124.359375 33.644531 125.367188 32.402344 125.367188 L 3.070312 125.367188 C 1.828125 125.367188 0.820312 124.359375 0.820312 123.117188 L 0.820312 2.566406 C 0.820312 1.320312 1.828125 0.316406 3.070312 0.316406 Z M 3.070312 0.316406 " clip-rule="nonzero"/></clipPath><clipPath id="679569c1ba"><rect x="0" width="35" y="0" height="126"/></clipPath><clipPath id="b1394564d5"><path d="M 368 4 L 440.921875 4 L 440.921875 164.121094 L 368 164.121094 Z M 368 4 " clip-rule="nonzero"/></clipPath><clipPath id="9987db330e"><rect x="0" width="73" y="0" height="161"/></clipPath><clipPath id="73b23935c9"><path d="M 87.265625 38.558594 L 101.191406 38.558594 L 101.191406 58.527344 L 87.265625 58.527344 Z M 87.265625 38.558594 " clip-rule="nonzero"/></clipPath><clipPath id="7100fd6716"><path d="M 101.191406 40.371094 L 101.191406 58.523438 L 94.230469 54.902344 L 87.265625 58.523438 L 87.265625 40.371094 C 87.265625 39.394531 88.101562 38.558594 89.078125 38.558594 L 99.382812 38.558594 C 100.355469 38.558594 101.191406 39.347656 101.191406 40.417969 Z M 101.191406 40.371094 " clip-rule="nonzero"/></clipPath><clipPath id="87114fa5ee"><path d="M 0.265625 0.558594 L 14.191406 0.558594 L 14.191406 20.527344 L 0.265625 20.527344 Z M 0.265625 0.558594 " clip-rule="nonzero"/></clipPath><clipPath id="6a359f02cc"><path d="M 14.191406 2.371094 L 14.191406 20.523438 L 7.230469 16.902344 L 0.265625 20.523438 L 0.265625 2.371094 C 0.265625 1.394531 1.101562 0.558594 2.078125 0.558594 L 12.382812 0.558594 C 13.355469 0.558594 14.191406 1.347656 14.191406 2.417969 Z M 14.191406 2.371094 " clip-rule="nonzero"/></clipPath><clipPath id="e7812000c6"><rect x="0" width="15" y="0" height="21"/></clipPath><clipPath id="310fecf793"><rect x="0" width="441" y="0" height="165"/></clipPath></defs><rect x="-48" width="576" fill="#ffffff" y="-29.999999" height="359.999986" fill-opacity="1"/><rect x="-48" width="576" fill="#4f9ac3" y="-29.999999" height="359.999986" fill-opacity="1"/><g transform="matrix(1, 0, 0, 1, 23, 73)"><g clip-path="url(#310fecf793)"><g clip-path="url(#5ae2e9c928)"><g transform="matrix(1, 0, 0, 1, 0, 3)"><g clip-path="url(#767c530098)"><g fill="#ffffff" fill-opacity="1"><g transform="translate(0.164319, 119.185646)"><g><path d="M 48.3125 0 L 31.515625 -30.484375 L 26.796875 -30.484375 L 26.796875 0 L 7.125 0 L 7.125 -80.75 L 40.140625 -80.75 C 46.503906 -80.75 51.929688 -79.632812 56.421875 -77.40625 C 60.910156 -75.1875 64.265625 -72.140625 66.484375 -68.265625 C 68.710938 -64.398438 69.828125 -60.085938 69.828125 -55.328125 C 69.828125 -49.960938 68.3125 -45.171875 65.28125 -40.953125 C 62.25 -36.734375 57.78125 -33.742188 51.875 -31.984375 L 70.515625 0 Z M 26.796875 -44.40625 L 39 -44.40625 C 42.601562 -44.40625 45.304688 -45.285156 47.109375 -47.046875 C 48.910156 -48.804688 49.8125 -51.300781 49.8125 -54.53125 C 49.8125 -57.59375 48.910156 -60.003906 47.109375 -61.765625 C 45.304688 -63.535156 42.601562 -64.421875 39 -64.421875 L 26.796875 -64.421875 Z M 26.796875 -44.40625 "/></g></g></g><g fill="#ffffff" fill-opacity="1"><g transform="translate(79.190554, 119.185646)"><g><path d="M 26.796875 -65 L 26.796875 -48.65625 L 53.140625 -48.65625 L 53.140625 -33.46875 L 26.796875 -33.46875 L 26.796875 -15.765625 L 56.59375 -15.765625 L 56.59375 0 L 7.125 0 L 7.125 -80.75 L 56.59375 -80.75 L 56.59375 -65 Z M 26.796875 -65 "/></g></g></g><g fill="#ffffff" fill-opacity="1"><g transform="translate(145.448406, 119.185646)"><g><path d="M 57.40625 -14.265625 L 27.265625 -14.265625 L 22.4375 0 L 1.84375 0 L 31.0625 -80.75 L 53.828125 -80.75 L 83.046875 0 L 62.234375 0 Z M 52.34375 -29.453125 L 42.328125 -59.015625 L 32.4375 -29.453125 Z M 52.34375 -29.453125 "/></g></g></g><g fill="#ffffff" fill-opacity="1"><g transform="translate(234.252228, 119.185646)"><g><path d="M 37.390625 -80.75 C 45.898438 -80.75 53.335938 -79.0625 59.703125 -75.6875 C 66.066406 -72.3125 70.992188 -67.578125 74.484375 -61.484375 C 77.972656 -55.390625 79.71875 -48.351562 79.71875 -40.375 C 79.71875 -32.476562 77.972656 -25.460938 74.484375 -19.328125 C 70.992188 -13.191406 66.046875 -8.4375 59.640625 -5.0625 C 53.234375 -1.6875 45.816406 0 37.390625 0 L 7.125 0 L 7.125 -80.75 Z M 36.125 -17.03125 C 43.5625 -17.03125 49.347656 -19.0625 53.484375 -23.125 C 57.628906 -27.1875 59.703125 -32.9375 59.703125 -40.375 C 59.703125 -47.8125 57.628906 -53.597656 53.484375 -57.734375 C 49.347656 -61.878906 43.5625 -63.953125 36.125 -63.953125 L 26.796875 -63.953125 L 26.796875 -17.03125 Z M 36.125 -17.03125 "/></g></g></g></g></g></g><g clip-path="url(#e73e95e968)"><g clip-path="url(#e325819157)"><g transform="matrix(1, 0, 0, 1, 325, 0)"><g clip-path="url(#679569c1ba)"><g clip-path="url(#1fa9f3d6c4)"><g clip-path="url(#e897fefeab)"><path fill="#ffffff" d="M 0.820312 0.316406 L 34.652344 0.316406 L 34.652344 125.332031 L 0.820312 125.332031 Z M 0.820312 0.316406 " fill-opacity="1" fill-rule="nonzero"/></g></g></g></g></g></g><path stroke-linecap="butt" transform="matrix(0.863778, 0, 0, 0.863778, 330.478379, 15.127571)" fill="none" stroke-linejoin="miter" d="M -0.00210312 3.999245 L 28.384275 3.999245 " stroke="#6c6c6c" stroke-width="8" stroke-opacity="1" stroke-miterlimit="4"/><g clip-path="url(#b1394564d5)"><g transform="matrix(1, 0, 0, 1, 368, 4)"><g clip-path="url(#9987db330e)"><g fill="#ffffff" fill-opacity="1"><g transform="translate(0.661946, 119.049428)"><g><path d="M 65.21875 -80.75 L 65.21875 -65 L 43.828125 -65 L 43.828125 0 L 24.15625 0 L 24.15625 -65 L 2.765625 -65 L 2.765625 -80.75 Z M 65.21875 -80.75 "/></g></g></g></g></g></g><g clip-path="url(#73b23935c9)"><g clip-path="url(#7100fd6716)"><g transform="matrix(1, 0, 0, 1, 87, 38)"><g clip-path="url(#e7812000c6)"><g clip-path="url(#87114fa5ee)"><g clip-path="url(#6a359f02cc)"><path fill="#b6071c" d="M 0.265625 0.558594 L 14.191406 0.558594 L 14.191406 20.527344 L 0.265625 20.527344 Z M 0.265625 0.558594 " fill-opacity="1" fill-rule="nonzero"/></g></g></g></g></g></g></g></g></svg>